Patient4_TMGait_0pt6_02_right_32_GRF.mot
version=1
nRows=65
nColumns=19
inDegrees=no
endheader
time	F1x	F1y	F1z	M1x	M1y	M1z	F2x	F2y	F2z	M2x	M2y	M2z	EC1x	EC1y	EC1z	EC2x	EC2y	EC2z
38.5	6.3862	750.9576	88.1476	-231.6204	-89.5255	794.7658	9.8713	5.8217	2.697	0.65886	-3.6017	6.6444	-0.0592	0.0182	-0.0073	-0.0462	0.0165	0.9585
38.5121	8.2245	748.4979	86.5519	-230.8012	-86.6276	789.9719	6.5068	5.3354	1.8319	1.0018	-2.3505	6.1159	-0.0592	0.0182	-0.0073	-0.0462	0.0165	0.9585
38.5241	10.1742	746.2326	84.9827	-229.966	-83.7146	784.9509	3.6652	4.9689	1.0676	1.3187	-1.2658	5.7342	-0.0592	0.0182	-0.0073	-0.0462	0.0165	0.9585
38.5362	12.1159	744.4885	83.5521	-229.228	-80.9757	780.1406	1.4977	4.7436	0.46696	1.5882	-0.42304	5.5169	-0.0592	0.0182	-0.0073	-0.0462	0.0165	0.9585
38.5483	13.9501	743.4503	82.3324	-228.6688	-78.5298	775.8439	-0.0023868	4.6382	0.033313	1.8026	0.17776	5.4304	-0.0592	0.0182	-0.0073	-0.0462	0.0165	0.9585
38.5604	15.6199	743.1125	81.3197	-228.3175	-76.3992	772.132	-0.94398	4.6164	-0.25649	1.9606	0.5739	5.4344	-0.0592	0.0182	-0.0073	-0.0462	0.0165	0.9585
38.5724	17.0869	743.3239	80.4527	-228.1569	-74.5348	768.9055	-1.4589	4.6078	-0.43685	2.0549	0.81232	5.4386	-0.0592	0.0182	-0.0073	-0.0462	0.0165	0.9585
38.5845	18.3509	743.8532	79.6639	-228.1406	-72.8624	765.9554	-1.685	4.5336	-0.5404	2.072	0.94411	5.3519	-0.0592	0.0182	-0.0073	-0.0462	0.0165	0.9585
38.5966	19.4222	744.4537	78.8715	-228.2071	-71.2808	763.0403	-1.7262	4.2783	-0.59902	1.9814	1.0141	5.0339	-0.0592	0.0182	-0.0073	-0.0462	0.0165	0.9585
38.6086	20.355	744.9233	78.039	-228.2962	-69.7203	759.9501	-1.6686	3.7047	-0.63049	1.7403	1.0488	4.3244	-0.0592	0.0182	-0.0073	-0.0462	0.0165	0.9585
38.6207	21.1992	745.1168	77.1384	-228.3587	-68.1257	756.5361	-1.5623	2.6614	-0.65269	1.2959	1.0633	3.0455	-0.0592	0.0182	-0.0073	-0.0462	0.0165	0.9585
38.6328	22.0221	744.9392	76.1952	-228.3551	-66.4951	752.6958	-1.4308	0.99869	-0.66942	0.59496	1.0547	1.0241	-0.0592	0.0182	-0.0073	-0.0462	0.0165	0.9585
38.6449	22.9077	744.3379	75.2223	-228.2564	-64.8166	748.3698	-1.2693	-1.3893	-0.67994	-0.40113	1.0118	-1.8618	-0.0592	0.0182	-0.0073	-0.0462	0.0165	0.9585
38.6569	23.9567	743.2743	74.2611	-228.0378	-63.1078	743.5089	-1.0439	-4.5049	-0.67163	-1.6898	0.90768	-5.6174	-0.0592	0.0182	-0.0073	-0.0462	0.0165	0.9585
38.669	25.261	741.6892	73.3111	-227.6728	-61.3524	738.0488	-0.71568	-8.1472	-0.62028	-3.1867	0.70201	-9.9916	-0.0592	0.0182	-0.0073	-0.0462	0.0165	0.9585
38.6811	26.8951	739.4676	72.3782	-227.1183	-59.5454	731.8815	-0.22471	-11.8162	-0.4999	-4.6839	0.34552	-14.376	-0.0592	0.0182	-0.0073	-0.0462	0.0165	0.9585
38.6931	28.8911	736.3927	71.4347	-226.3047	-57.6564	724.8134	0.46774	-14.5589	-0.27369	-5.7904	-0.21489	-17.6146	-0.0592	0.0182	-0.0073	-0.0462	0.0165	0.9585
38.7052	31.2358	732.1309	70.4577	-225.1278	-55.6671	716.5647	1.4037	-14.8678	0.08637	-5.8867	-1.0206	-17.894	-0.0592	0.0182	-0.0073	-0.0462	0.0165	0.9585
38.7173	33.8794	726.2579	69.3866	-223.4582	-53.5339	706.7795	2.5587	-10.5485	0.61269	-4.0769	-2.0907	-12.5686	-0.0592	0.0182	-0.0073	-0.0462	0.0165	0.9585
38.7294	36.7142	718.2941	68.145	-221.1489	-51.2178	695.0618	3.8448	1.2432	1.3076	0.80049	-3.3817	1.7731	-0.0592	0.0182	-0.0073	-0.0462	0.0165	0.9585
38.7414	39.5974	707.7282	66.6335	-218.0404	-48.6714	681.0022	5.0278	23.8364	2.1442	10.1005	-4.7555	29.1217	-0.0592	0.0182	-0.0073	-0.0462	0.0165	0.9585
38.7535	42.3604	693.9487	64.753	-213.9399	-45.8619	664.1287	5.7248	60.5818	3.0202	25.183	-5.9163	73.4701	-0.0592	0.0182	-0.0073	-0.0462	0.0165	0.9585
38.7656	44.8046	676.1441	62.3937	-208.5919	-42.7515	643.8021	5.3295	114.0053	3.7439	47.0622	-6.3631	137.8254	-0.0592	0.0182	-0.0073	-0.0462	0.0165	0.9585
38.7776	46.698	653.2044	59.4143	-201.6512	-39.2823	619.1006	3.0199	184.4176	3.9973	75.8366	-5.3605	222.5213	-0.0592	0.0182	-0.0073	-0.0462	0.0165	0.9585
38.7897	47.7712	623.7561	55.6613	-192.6988	-35.3992	588.8425	-2.2425	268.0182	3.3104	109.9101	-1.9423	322.9308	-0.0592	0.0182	-0.0073	-0.0462	0.0165	0.9585
38.8018	47.7597	586.4706	51.001	-181.3367	-31.067	551.8419	-11.0478	355.1492	1.0701	145.2992	4.7509	427.3514	-0.0592	0.0182	-0.0073	-0.0462	0.0165	0.9585
38.8139	46.4168	540.641	45.4579	-167.3579	-26.3968	507.4558	-21.7317	432.8778	-3.8074	176.7312	15.1102	519.9942	-0.0592	0.0182	-0.0073	-0.0462	0.0165	0.9585
38.8259	43.5889	486.7751	39.2681	-150.9112	-21.6593	456.1064	-31.9731	494.0454	-11.3165	201.275	28.0831	591.9238	-0.0592	0.0182	-0.0073	-0.0462	0.0165	0.9585
38.838	39.2629	426.6474	32.9253	-132.506	-17.2938	399.3917	-40.5577	539.4812	-20.3429	219.281	41.9577	643.9007	-0.0592	0.0182	-0.0073	-0.0462	0.0165	0.9585
38.8501	33.7161	362.7649	26.9894	-112.8796	-13.6982	339.5266	-46.8935	573.9141	-29.902	232.7288	55.3429	681.5988	-0.0592	0.0182	-0.0073	-0.0462	0.0165	0.9585
38.8621	27.2644	298.1197	21.7636	-92.9337	-11.0292	279.1925	-50.7788	602.6535	-38.6678	243.8519	66.7288	711.4405	-0.0592	0.0182	-0.0073	-0.0462	0.0165	0.9585
38.8742	20.3275	235.7771	17.3431	-73.6169	-9.242	221.1193	-52.4525	629.3018	-46.1035	254.1639	75.5725	737.9266	-0.0592	0.0182	-0.0073	-0.0462	0.0165	0.9585
38.8863	13.367	178.6232	13.6641	-55.8386	-8.1363	167.9246	-52.1519	655.4425	-51.6901	264.3311	81.4695	763.0451	-0.0592	0.0182	-0.0073	-0.0462	0.0165	0.9585
38.8984	6.9734	128.8901	10.6483	-40.3205	-7.456	121.622	-50.3925	681.1734	-55.8334	274.3471	85.0591	787.1644	-0.0592	0.0182	-0.0073	-0.0462	0.0165	0.9585
38.9104	1.6828	87.8455	8.1679	-27.4858	-6.9114	83.3719	-47.5347	705.7916	-58.809	283.8721	86.8751	809.6389	-0.0592	0.0182	-0.0073	-0.0462	0.0165	0.9585
38.9225	-2.1206	55.6542	6.1085	-17.4102	-6.2703	53.3011	-44.0625	728.3673	-61.3534	292.4291	87.917	829.6782	-0.0592	0.0182	-0.0073	-0.0462	0.0165	0.9585
38.9346	-4.3378	31.7351	4.3707	-9.9239	-5.408	30.8774	-40.3148	747.8328	-63.7415	299.5302	88.6773	846.2431	-0.0592	0.0182	-0.0073	-0.0462	0.0165	0.9585
38.9466	-5.0971	15.0463	2.8948	-4.7069	-4.3126	15.1483	-36.7602	763.2712	-66.3176	304.7494	89.6959	858.5462	-0.0592	0.0182	-0.0073	-0.0462	0.0165	0.9585
38.9587	-4.7686	4.3524	1.6917	-1.3725	-3.117	4.9952	-33.622	773.969	-68.8972	307.8013	90.8886	865.9295	-0.0592	0.0182	-0.0073	-0.0462	0.0165	0.9585
38.9708	-3.8978	-1.6401	0.80104	0.4879	-2.0305	-0.75417	-31.0578	779.6135	-71.2724	308.5869	92.0754	868.1927	-0.0592	0.0182	-0.0073	-0.0462	0.0165	0.9585
38.9829	-2.8413	-4.2863	0.22647	1.2978	-1.1755	-3.3587	-28.9633	780.3072	-73.0068	307.217	92.7637	865.4696	-0.0592	0.0182	-0.0073	-0.0462	0.0165	0.9585
38.9949	-1.857	-4.7629	-0.1067	1.426	-0.56146	-3.8904	-27.2173	776.5896	-73.9047	303.9762	92.6946	858.3631	-0.0592	0.0182	-0.0073	-0.0462	0.0165	0.9585
39.007	-1.0182	-4.0295	-0.24358	1.173	-0.17264	-3.2835	-25.6983	769.2252	-73.9376	299.2517	91.7929	847.6446	-0.0592	0.0182	-0.0073	-0.0462	0.0165	0.9585
39.0191	-0.40326	-2.7492	-0.26704	0.7485	0.047584	-2.1347	-24.3651	759.2931	-73.3617	293.5266	90.3148	834.4222	-0.0592	0.0182	-0.0073	-0.0462	0.0165	0.9585
39.0311	0.046085	-1.3807	-0.20928	0.29572	0.14182	-0.90907	-23.2636	748.0883	-72.4482	287.3708	88.5706	820.0064	-0.0592	0.0182	-0.0073	-0.0462	0.0165	0.9585
39.0432	0.30658	-0.1391	-0.13038	-0.11342	0.16211	0.22474	-22.4672	737.1854	-71.4129	281.4545	86.8271	806.0072	-0.0592	0.0182	-0.0073	-0.0462	0.0165	0.9585
39.0553	0.47577	0.8308	-0.042325	-0.43422	0.14321	1.094	-22.0247	728.2323	-70.3794	276.4666	85.2416	794.1106	-0.0592	0.0182	-0.0073	-0.0462	0.0165	0.9585
39.0674	0.5372	1.5444	0.026808	-0.66691	0.10975	1.7472	-21.9575	722.5528	-69.3801	272.9599	83.8593	785.6416	-0.0592	0.0182	-0.0073	-0.0462	0.0165	0.9585
39.0794	0.5709	2.0104	0.081603	-0.81703	0.079489	2.1506	-22.2514	720.9573	-68.427	271.2648	82.6891	781.4001	-0.0592	0.0182	-0.0073	-0.0462	0.0165	0.9585
39.0915	0.5455	2.3071	0.1119	-0.90705	0.054247	2.4202	-22.8438	723.6726	-67.4896	271.4658	81.6772	781.5513	-0.0592	0.0182	-0.0073	-0.0462	0.0165	0.9585
39.1036	0.52757	2.4855	0.11976	-0.95445	0.042701	2.5815	-23.6902	730.4025	-66.5754	273.4288	80.8056	785.7263	-0.0592	0.0182	-0.0073	-0.0462	0.0165	0.9585
39.1156	0.47866	2.6092	0.10765	-0.97823	0.034171	2.7265	-24.6852	740.4612	-65.6753	276.8593	80.0181	793.14	-0.0592	0.0182	-0.0073	-0.0462	0.0165	0.9585
39.1277	0.44058	2.7079	0.071804	-0.99145	0.044931	2.8467	-25.7134	752.8732	-64.8243	281.3441	79.2854	802.7263	-0.0592	0.0182	-0.0073	-0.0462	0.0165	0.9585
39.1398	0.3761	2.8209	0.029992	-1.0049	0.050261	2.9999	-26.5972	766.4333	-64.0358	286.3849	78.5391	813.1809	-0.0592	0.0182	-0.0073	-0.0462	0.0165	0.9585
39.1519	0.31126	2.9322	-0.025304	-1.0187	0.063823	3.1495	-27.1142	779.7861	-63.363	291.4281	77.734	823.0617	-0.0592	0.0182	-0.0073	-0.0462	0.0165	0.9585
39.1639	0.22464	3.0393	-0.062016	-1.0312	0.052999	3.3006	-27.0121	791.561	-62.8105	295.9254	76.7716	830.9263	-0.0592	0.0182	-0.0073	-0.0462	0.0165	0.9585
39.176	0.13255	3.1024	-0.09143	-1.0304	0.033901	3.3863	-26.0926	800.525	-62.373	299.3952	75.5631	835.4994	-0.0592	0.0182	-0.0073	-0.0462	0.0165	0.9585
39.1881	0.022182	3.0632	-0.090595	-0.99492	-0.014824	3.3344	-24.2364	805.7627	-61.9878	301.4848	74.001	835.8539	-0.0592	0.0182	-0.0073	-0.0462	0.0165	0.9585
39.2001	-0.10879	2.846	-0.06926	-0.89894	-0.084645	3.0634	-21.433	806.7295	-61.5715	301.994	72.0059	831.469	-0.0592	0.0182	-0.0073	-0.0462	0.0165	0.9585
39.2122	-0.25517	2.3461	-0.015281	-0.70662	-0.18858	2.4603	-17.7837	803.3447	-61.0274	300.9027	69.5319	822.3359	-0.0592	0.0182	-0.0073	-0.0462	0.0165	0.9585
39.2243	-0.42626	1.4807	0.055796	-0.38678	-0.31787	1.4502	-13.4187	795.9871	-60.2888	298.3668	66.5823	808.9281	-0.0592	0.0182	-0.0073	-0.0462	0.0165	0.9585
39.2364	-0.58179	0.14706	0.14439	0.09372	-0.45948	-0.090133	-8.5435	785.3973	-59.3326	294.6782	63.2227	792.1055	-0.0592	0.0182	-0.0073	-0.0462	0.0165	0.9585
39.2484	-0.70582	-1.6703	0.22382	0.74184	-0.57768	-2.1668	-3.3161	772.5799	-58.196	290.2199	59.5692	772.9832	-0.0592	0.0182	-0.0073	-0.0462	0.0165	0.9585
39.2605	-0.70141	-3.9241	0.28068	1.5371	-0.62475	-4.7574	2.0731	758.6842	-56.9764	285.4189	55.7984	752.8278	-0.0592	0.0182	-0.0073	-0.0462	0.0165	0.9585
39.2726	-0.49472	-6.3774	0.26894	2.3958	-0.52378	-7.5689	7.4826	744.8749	-55.8031	280.7003	52.0987	732.8899	-0.0592	0.0182	-0.0073	-0.0462	0.0165	0.9585
